<svg xmlns="http://www.w3.org/2000/svg" xmlns:xlink="http://www.w3.org/1999/xlink" width="118.76" height="80.41" viewBox="0 0 118.76 80.41"><defs><linearGradient id="linear-gradient" x1="59.38" y1="80.41" x2="59.38" gradientUnits="userSpaceOnUse"><stop offset="0" stop-color="#6d78f6"/><stop offset="1" stop-color="#8e75f6"/></linearGradient></defs><title>Asset 7</title><g id="Layer_2" data-name="Layer 2"><g id="Layer_1-2" data-name="Layer 1"><path d="M68.29,80.41H4.54A4.55,4.55,0,0,1,0,75.87V31.3a4.55,4.55,0,0,1,4.54-4.54H68.29a4.55,4.55,0,0,1,4.53,4.54V75.87A4.55,4.55,0,0,1,68.29,80.41Zm50.47-30.47V3.63A3.64,3.64,0,0,0,115.13,0H49.49a3.64,3.64,0,0,0-3.63,3.63V49.94a3.64,3.64,0,0,0,3.63,3.63h65.64A3.64,3.64,0,0,0,118.76,49.94Z" fill="url(#linear-gradient)"/></g></g></svg>